<?xml version="1.0" standalone="no"?>
<!DOCTYPE svg PUBLIC "-//W3C//DTD SVG 1.1//EN" "http://www.w3.org/Graphics/SVG/1.1/DTD/svg11.dtd" >
<!--
2013-9-30: Created.
-->
<svg>
<metadata>
Created by iconfont
</metadata>
<defs>

<font id="iconfont" horiz-adv-x="1024" >
  <font-face
    font-family="iconfont"
    font-weight="500"
    font-stretch="normal"
    units-per-em="1024"
    ascent="896"
    descent="-128"
  />
    <missing-glyph />
    
    <glyph glyph-name="x" unicode="x" horiz-adv-x="1001"
d="M281 543q-27 -1 -53 -1h-83q-18 0 -36.5 -6t-32.5 -18.5t-23 -32t-9 -45.5v-76h912v41q0 16 -0.5 30t-0.5 18q0 13 -5 29t-17 29.5t-31.5 22.5t-49.5 9h-133v-97h-438v97zM955 310v-52q0 -23 0.5 -52t0.5 -58t-10.5 -47.5t-26 -30t-33 -16t-31.5 -4.5q-14 -1 -29.5 -0.5
t-29.5 0.5h-32l-45 128h-439l-44 -128h-29h-34q-20 0 -45 1q-25 0 -41 9.5t-25.5 23t-13.5 29.5t-4 30v167h911zM163 247q-12 0 -21 -8.5t-9 -21.5t9 -21.5t21 -8.5q13 0 22 8.5t9 21.5t-9 21.5t-22 8.5zM316 123q-8 -26 -14 -48q-5 -19 -10.5 -37t-7.5 -25t-3 -15t1 -14.5
t9.5 -10.5t21.5 -4h37h67h81h80h64h36q23 0 34 12t2 38q-5 13 -9.5 30.5t-9.5 34.5q-5 19 -11 39h-368zM336 498v228q0 11 2.5 23t10 21.5t20.5 15.5t34 6h188q31 0 51.5 -14.5t20.5 -52.5v-227h-327z" />
    

    
    <glyph glyph-name="out" unicode="&#58975;" d="M909.578 385.665c30.228-30.228 68.48-283.139 30.228-302.264-60.457-30.228-302.264 30.228-302.264 30.228l120.904 60.447c-120.904 181.361-302.264 302.274-302.264 302.274 272.036-30.228 407.112-181.361 407.112-181.361l46.284 90.675zM758.436 567.036h-60.447c0 49.999-40.676 90.675-90.685 90.675h-392.95c-49.999 0-90.675-40.676-90.675-90.675v-241.817c0-50.009 40.676-90.685 90.675-90.685h392.95v-60.447h-151.132v-60.457h133.020c10.008 0 18.123-13.538 18.123-30.228s-8.115-30.228-18.123-30.228h-326.476c-10.039 0-18.123 13.538-18.123 30.228s8.084 30.228 18.123 30.228h132.999v60.457h-181.361c-83.328 0-151.132 67.804-151.132 151.132v241.817c0 83.328 67.804 151.132 151.132 151.132h392.95c83.328-0 151.132-67.804 151.132-151.132z"  horiz-adv-x="1024" />

    
    <glyph glyph-name="moreunfold" unicode="&#59046;" d="M478.31207 251.840919C502.692194 224.938714 542.819471 225.301807 566.819471 252.730379L837.388303 561.951902C845.146852 570.818816 844.248346 584.296418 835.381431 592.05497 826.514517 599.813519 813.036915 598.915012 805.278364 590.048098L534.709532 280.826577C527.507586 272.59578 517.168621 272.502227 509.927514 280.492414L229.141056 590.325747C221.229163 599.056111 207.737949 599.719614 199.007586 591.807723 190.277222 583.895829 189.61372 570.404617 197.525612 561.674253L478.31207 251.840919Z"  horiz-adv-x="1024" />

    
    <glyph glyph-name="more" unicode="&#59047;" d="M642.174253 391.40582C650.164439 384.164713 650.070886 373.825747 641.84009 366.623802L332.618569 96.05497C323.751654 88.296418 322.853148 74.818816 330.611697 65.951902 338.370249 57.084988 351.847851 56.186481 360.714765 63.94503L669.936288 334.513862C697.36486 358.513862 697.727953 398.641139 670.825747 423.021263L360.992414 703.807722C352.26205 711.719614 338.770837 711.056111 330.858944 702.325748 322.947053 693.595384 323.610556 680.104171 332.340919 672.192277L642.174253 391.40582Z"  horiz-adv-x="1024" />

    
    <glyph glyph-name="yewuguanli" unicode="&#58929;" d="M837.14652486 557.75978462l0 44.28662376c0 24.47028683-19.91267752 44.37555291-44.38296361 44.3755529l-383.72847989 0c-0.59285979 0.31125166-2.53447532 1.55625686-5.98047281 5.89154366-3.55715874 4.46868017-7.1810138 10.2490633-11.01236996 16.37034018-11.36067513 18.1118653-23.10670895 36.84623393-42.58956284 36.84623394L186.89794008 705.53007978c-24.46287612 0-44.37555291-19.90526608-44.37555291-44.37555291l0-502.4486468c0-0.24455462 0.0074107-0.49651994 0.0222321-0.74107455 0.0074107-0.17785757 0.0222321-0.36312658 0.03705352-0.55580629 0.01482141-0.16303617 0.02964281-0.32607306 0.05187491-0.48910924 0.0074107-0.08151844 0.0222321-0.16303617 0.03705351-0.25196531 0.0074107-0.12598266 0.02964281-0.24455462 0.05187491-0.37053729 0.03705351-0.20009041 0.07410774-0.40018009 0.11116126-0.59285979 0.02964281-0.16303617 0.06669704-0.33348377 0.11116126-0.49651993 0.12598266-0.49651994 0.26678673-0.97821848 0.43723432-1.459917 0.07410774-0.19267971 0.14821477-0.38535868 0.22232251-0.57803839 0.05928562-0.14821477 0.12598266-0.29642953 0.185269-0.44464503 0.03705351-0.06669704 0.06669704-0.14080406 0.09633985-0.2149118 0.07410774-0.15562546 0.15562546-0.31866237 0.23714392-0.47428783 0.12598266-0.25196532 0.26678673-0.50393064 0.41500149-0.75589596 0.05928562-0.11116125 0.12598266-0.22232252 0.19267971-0.32607309 0.61509189-1.00045057 1.34875575-1.92679414 2.18617014-2.75679783 0.11857196-0.11857196 0.23714392-0.23714392 0.36312658-0.34830517 0.20750111-0.19267971 0.42241292-0.37794798 0.63732401-0.55580628 0.185269-0.14821477 0.37053727-0.29642953 0.56321697-0.44464502 0.19267971-0.14080406 0.38535868-0.28160812 0.57803839-0.40759079 0.19267971-0.13339336 0.38535868-0.25937603 0.58544909-0.37794797 0.22973322-0.14080406 0.46687714-0.27419743 0.71143175-0.40018009 0.13339336-0.08151844 0.27419743-0.14821477 0.41500149-0.22232252 0.14821477-0.06669704 0.29642953-0.14080406 0.43723432-0.2075011 0.0074107 0 0.01482141 0 0.0148214 0 0.19267971-0.08892915 0.39276938-0.17785757 0.59285979-0.25196533 0.40018009-0.16303617 0.8077716-0.31125166 1.2301838-0.43723431 0.41500148-0.12598266 0.84482512-0.23714392 1.28205943-0.32607308 0.54839558-0.11116125 1.08937973-0.19267971 1.63036461-0.24455461 0.45205573-0.04446422 0.90411145-0.06669704 1.35616645-0.06669705l0.04446421 0c0.25196532 0 0.49651994 0.0074107 0.74848525 0.02223211 0.17785757 0 0.35571587 0.01482141 0.53357346 0.03705351 0.17785757 0.01482141 0.36312658 0.02964281 0.54098486 0.05928562 0.05928562 0 0.11857196 0.0074107 0.17044688 0.0222321 0.15562546 0.01482141 0.31125166 0.03705351 0.46687712 0.06669706 0.19267971 0.02964281 0.37794798 0.06669704 0.56321699 0.10375054 0.14080406 0.02964281 0.28160812 0.05928562 0.42241292 0.10375055 0.51875205 0.11857196 1.02268341 0.26678673 1.51920334 0.44464504 0.19267971 0.07410774 0.38535868 0.14821477 0.5780384 0.22232251 0.19267971 0.08151844 0.37794798 0.15562546 0.56321697 0.24455461 0.0074107 0 0.01482141 0 0.01482141 0 0.19267971 0.08892915 0.37053727 0.17785757 0.55580627 0.27419743 0.25937603 0.12598266 0.51134135 0.25937603 0.75589597 0.41500149 0.11116125 0.05928562 0.22232252 0.12598266 0.32607306 0.1926797 0.57803839 0.34830518 1.12643324 0.74107455 1.65259671 1.17830887 0.185269 0.14821477 0.36312658 0.30384096 0.54098487 0.46687714 0.17044687 0.15562546 0.34089447 0.31866237 0.51134135 0.48910924 0.17044687 0.17044687 0.33348377 0.34089447 0.48910924 0.51134133 0.16303617 0.17785757 0.31866237 0.35571587 0.46687713 0.54098489 0.14821477 0.185269 0.29642953 0.37053727 0.44464501 0.56321698 0.0074107 0.0074107 0.0074107 0.0074107 0.00741071 0.00741069 0.27419743 0.37794798 0.54098487 0.77071736 0.78553949 1.17089817 0.12598266 0.20750111 0.24455462 0.41500148 0.35571588 0.62250261 0.09633985 0.17785757 0.19267971 0.35571587 0.28160813 0.53357345 0.02964281 0.06669704 0.06669704 0.13339336 0.09633983 0.20009041 0.06669704 0.14821477 0.13339336 0.29642953 0.20009042 0.45205573 0.07410774 0.15562546 0.14080406 0.32607306 0.20009041 0.48910922 0.05928562 0.14080406 0.11116125 0.28160812 0.16303617 0.42241292 0.01482141 0.05187491 0.03705351 0.10375055 0.05187491 0.16303617 0.05928562 0.16303617 0.11116125 0.33348377 0.16303617 0.50393064 0.12598266 0.41500148 0.23714392 0.84482512 0.32607307 1.28205943l0.0148214 0.07410774 74.18898854 356.07157162 0 1.52661404c0 8.12217876 6.60297542 14.73256486 14.73256488 14.73256487l576.31156156 0c7.73682007 0 14.11006227-6.00270492 14.68810066-13.60613163l-73.53684241-397.09005618-0.05928563-0.32607306c-0.04446422-0.22973322-0.08151844-0.45946643-0.11116125-0.68178894-0.02964281-0.21491181-0.05187491-0.42241292-0.07410774-0.6299133-0.01482141-0.20750111-0.03705351-0.41500148-0.04446422-0.6225026-0.01482141-0.23714392-0.0222321-0.48169853-0.0222321-0.71884245l0-0.05928561c-0.0074107-8.11476806-6.61038611-14.71774346-14.73256488-14.71774347l-431.6463694 0c-8.18887507 0-14.82149402-6.63261822-14.82149402-14.82149403 0-8.18146438 6.63261822-14.82149402 14.82149402-14.82149401l431.6463694 0c23.95153406 0 43.53072779 19.0752631 44.3459101 42.82670675l0 0.0074107 73.67023578 397.83113075 0.25196533 1.33393433 0 1.36357716C881.47761283 537.83969712 861.58716815 557.73755252 837.14652486 557.75978462zM807.50353682 557.75978462l-546.71303846 0c-23.90706984 0-43.46403148-19.00115535-44.34591009-42.7007241l-44.27921307-212.54763482 0 358.64310117c0 8.12217876 6.61038611 14.73256486 14.73256488 14.73256488l162.25089471 0c0.51134135-0.22232252 2.54188603-1.31911294 6.28431378-5.95083001 3.73501631-4.62430636 7.67753374-10.91603011 11.49406849-17.00025349 11.13835263-17.77838226 22.66206465-36.15703431 41.63357647-36.15703427l384.202767 0c8.12958946 0 14.73997557-6.61038611 14.73997558-14.73256488L807.50353682 557.75978462 807.50353682 557.75978462zM153.0456479 144.54394287000002c-0.41500148 0.12598266-0.8300037 0.26678673-1.2301838 0.43723434C152.21564418 144.81814029999998 152.62323498 144.66992554 153.0456479 144.54394287000002z"  horiz-adv-x="1024" />

    
    <glyph glyph-name="fangxingweixuanzhong" unicode="&#59168;" d="M832-32.00086l-640 0c-52.9288 0-96.00086 43.07206-96.00086 95.99914l0 640c0 52.9288 43.07206 96.00086 96.00086 96.00086l640 0c52.92708 0 95.99914-43.07206 95.99914-96.00086l0-640C928.00086 11.0712 884.9288-32.00086 832-32.00086zM192 735.99914c-17.632039 0-32.00086-14.368821-32.00086-32.00086l0-640c0-17.664722 14.368821-31.99914 32.00086-31.99914l640 0c17.664722 0 31.99914 14.336138 31.99914 31.99914l0 640c0 17.632039-14.336138 32.00086-31.99914 32.00086L192 735.99914z"  horiz-adv-x="1024" />

    
    <glyph glyph-name="fangxingxuanzhongfill" unicode="&#59169;" d="M832 799.99914l-640 0c-52.9288 0-96.00086-43.07206-96.00086-96.00086l0-640c0-52.92708 43.07206-95.99914 96.00086-95.99914l640 0c52.92708 0 95.99914 43.07206 95.99914 95.99914l0 640C928.00086 756.9288 884.9288 799.99914 832 799.99914zM727.231286 457.567746 471.00766 198.560839c-0.063647-0.063647-0.192662-0.096331-0.25631-0.192662-0.096331-0.063647-0.096331-0.192662-0.192662-0.25631-2.048757-1.983389-4.575729-3.19957-6.944443-4.544765-1.183497-0.672598-2.143368-1.696116-3.392232-2.176052-3.839484-1.536138-7.904314-2.33603-11.967424-2.33603-4.095794 0-8.224271 0.799892-12.096439 2.399677-1.279828 0.543583-2.303346 1.632469-3.519527 2.303346-2.368714 1.343475-4.832039 2.528692-6.880796 4.544765-0.063647 0.063647-0.096331 0.192662-0.159978 0.25631-0.063647 0.096331-0.192662 0.096331-0.25631 0.192662l-126.016611 129.503454c-12.320065 12.672705-12.032791 32.928047 0.639914 45.248112 12.672705 12.287381 32.895364 12.063755 45.248112-0.639914l103.26354-106.112189 233.279613 235.808305c12.416396 12.576374 32.704421 12.672705 45.248112 0.25631C739.520387 490.368499 739.647682 470.111437 727.231286 457.567746z"  horiz-adv-x="1024" />

    
    <glyph glyph-name="save" unicode="&#58987;" d="M736.634 748.352h-449.801c-77.014 0-139.436-62.396-139.436-139.313v-449.482c0-76.965 62.421-139.362 139.436-139.362h449.8c77.014 0 139.436 62.397 139.436 139.362v449.482c0.001 76.917-62.42 139.313-139.435 139.313zM328.211 714.308h367.046v-249.44h-367.046v249.44zM841.977 159.556c0-58.080-47.263-105.27-105.344-105.27h-449.8c-58.080 0-105.344 47.19-105.344 105.27v449.482c0 58.030 47.263 105.27 105.344 105.27h7.283v-283.533h435.232v283.533h7.284c58.080 0 105.344-47.24 105.344-105.27v-449.482zM589.398 522.507h34.093v134.163h-34.093v-134.163z"  horiz-adv-x="1024" />

    
    <glyph glyph-name="list" unicode="&#58880;" d="M177.865 681.954c-19.095 0-34.573-15.477-34.573-34.573 0-19.095 15.48-34.574 34.573-34.574s34.573 15.48 34.573 34.574c0 19.096-15.479 34.573-34.573 34.573zM177.865 428.411c-19.095 0-34.573-15.48-34.573-34.573s15.48-34.573 34.573-34.573 34.573 15.48 34.573 34.573-15.479 34.574-34.573 34.574zM177.865 197.917c-19.095 0-34.573-15.48-34.573-34.573 0-19.096 15.48-34.576 34.573-34.576s34.573 15.48 34.573 34.576c0 19.095-15.479 34.573-34.573 34.573zM869.35 681.954h-530.14c-6.365 0-11.524-5.16-11.524-11.525v-23.050c0-6.365 5.16-11.524 11.524-11.524h530.139c6.365 0 11.525 5.16 11.525 11.524v23.050c0.001 6.364-5.159 11.525-11.524 11.525zM869.35 428.411h-530.14c-6.365 0-11.524-5.16-11.524-11.525v-23.050c0-6.365 5.16-11.525 11.524-11.525h530.139c6.365 0 11.525 5.16 11.525 11.525v23.050c0.001 6.364-5.159 11.525-11.524 11.525zM869.35 197.917h-530.14c-6.365 0-11.524-5.162-11.524-11.527v-23.047c0-6.367 5.16-11.527 11.524-11.527h530.139c6.365 0 11.525 5.16 11.525 11.527v23.047c0.001 6.365-5.159 11.527-11.524 11.527z"  horiz-adv-x="1024" />

    
    <glyph glyph-name="duanxinfasong" unicode="&#58967;" d="M647.902 36.596h-420.473c-70.7 0-126.514 55.814-126.514 126.514v442.799c0 70.7 55.814 126.514 126.514 126.514h692.107c70.7 0 126.514-55.814 126.514-126.514v-189.771c0-11.163-7.441-18.605-18.605-18.605s-18.605 7.441-18.605 18.605v189.771c0 48.372-40.93 89.306-89.306 89.306h-692.107c-48.372 0-89.306-40.93-89.306-89.306v-442.799c0-48.372 40.93-89.306 89.306-89.306h420.473c11.163 0 18.605-7.441 18.605-18.605s-11.163-18.605-18.605-18.605zM744.493 312.104c-3.722 0-7.441 0-11.163 3.722l-576.755 338.61c-7.441 3.722-11.163 14.885-7.441 26.047 3.722 7.441 14.885 11.163 26.047 7.441l576.755-342.334c7.441-3.722 11.163-14.885 7.441-26.047 0-7.441-7.441-7.441-14.885-7.441zM153.009 66.362c-7.441 0-11.163 3.722-14.885 7.441-7.441 7.441-3.722 18.605 3.722 26.047l844.667 599.084c7.441 7.441 18.605 3.722 26.047-3.722 7.441-7.441 3.722-18.605-3.722-26.047l-844.667-599.084c-3.722 0-7.441-3.722-11.163-3.722zM1057.213 177.994h-372.101c-11.163 0-18.605 7.441-18.605 18.605s7.441 18.605 18.605 18.605h372.101c11.163 0 18.605-7.441 18.605-18.605s-7.441-18.605-18.605-18.605zM1057.213 177.994c-3.722 0-7.441 0-11.163 3.722l-171.166 163.725c-7.441 7.441-7.441 18.605 0 26.047s18.605 7.441 26.047 0l171.166-163.725c7.441-7.441 7.441-18.605 0-26.047-7.441 0-11.163-3.722-14.885-3.722zM886.047 25.432c-3.722 0-11.163 3.722-14.885 7.441-7.441 7.441-7.441 18.605 0 26.047l171.166 152.561c7.441 7.441 18.605 7.441 26.047 0s7.441-18.605 0-26.047l-171.166-152.561c0-7.441-7.441-7.441-11.163-7.441z"  horiz-adv-x="1131" />

    
    <glyph glyph-name="yousanjiao" unicode="&#58889;" d="M320.137473 896v-1023.800039l447.312634 511.900019z"  horiz-adv-x="1024" />

    
    <glyph glyph-name="upload" unicode="&#58904;" d="M486.209 358.374l-45.895-34.36c-5.768-5.768-22.907-5.768-28.674 5.768-11.453 11.453-5.768 22.907 5.768 28.674l86.023 63.035c5.768 5.768 17.221 5.768 28.674 0l86.023-63.035c0-5.768 5.768-17.221-5.768-28.674-5.768-5.768-11.453-11.453-17.221-11.453-5.768 0-11.453 0-11.453 5.768l-51.581 35.678v-267.627c0-13.019-5.768-26.037-22.907-26.037-11.453 0-22.907 13.019-22.907 26.037v266.226h-0.082zM302.793 129.062h-17.221c-103.244 0-183.499 91.792-183.499 200.721 0 114.615 86.023 206.406 189.185 200.637 34.36 114.615 131.836 194.952 240.766 194.952 120.382 0 223.544-91.708 252.218-223.545 80.256-17.221 137.604-91.708 137.604-183.417 0-103.162-74.487-189.185-166.279-189.185-28.674 0-86.023 0-149.057 51.581-11.453 11.453-11.453 28.674 0 34.36 11.453 11.453 22.907 11.453 34.36 0 45.895-45.895 86.023-40.127 108.929-40.127h5.768c68.801 0 120.382 63.035 120.382 143.289 0 74.487-51.581 137.604-114.615 143.289-11.453 0-17.221 11.453-22.907 17.221-17.221 114.615-103.162 200.637-206.406 200.637-91.709 0-177.731-74.487-200.637-177.731 0-11.453-11.453-17.221-28.674-17.221h-22.907c-74.487 0-131.836-68.801-131.836-154.824s57.349-154.824 131.836-154.824h11.453c22.907 0 51.581 0 91.708 40.128 11.453 11.453 22.907 11.453 34.36 0s11.453-22.907 0-34.36c-45.813-45.813-85.941-51.581-114.532-51.581z"  horiz-adv-x="1024" />

    
    <glyph glyph-name="xiala" unicode="&#58961;" d="M857.2 532.2c-11 13.8-31.2 16.1-45 5L511.4 297 212.1 537.2c-13.8 11.1-33.9 8.9-45-4.9s-8.9-33.9 4.9-45l319.3-256.2c0.3-0.2 0.6-0.4 0.8-0.6 0.1-0.1 0.3-0.2 0.4-0.3 0.3-0.2 0.6-0.4 0.8-0.6 0.2-0.1 0.3-0.2 0.5-0.3 0.3-0.2 0.5-0.3 0.8-0.5 0.4-0.3 0.8-0.5 1.2-0.7 0.2-0.1 0.3-0.2 0.5-0.3 0.3-0.2 0.7-0.3 1-0.5 0.1-0.1 0.3-0.1 0.4-0.2 0.4-0.2 0.8-0.4 1.3-0.5 0.1 0 0.1-0.1 0.2-0.1 1.1-0.4 2.2-0.8 3.3-1.1 1.7-0.5 3.4-0.8 5.1-1h0.2c0.5-0.1 1-0.1 1.5-0.1h2c0.7 0 1.5 0 2.2 0.1 0.2 0 0.5 0 0.7 0.1 0.6 0.1 1.3 0.1 1.9 0.2 0.3 0 0.5 0.1 0.8 0.1 0.6 0.1 1.1 0.2 1.7 0.4 0.3 0.1 0.6 0.1 0.9 0.2 0.6 0.2 1.3 0.4 1.9 0.6 0.2 0.1 0.4 0.1 0.6 0.2 0.6 0.2 1.2 0.4 1.8 0.7l0.6 0.3c0.7 0.3 1.4 0.7 2.1 1.1 0 0 0.1 0 0.1 0.1 0.7 0.4 1.4 0.8 2.1 1.3 0.1 0.1 0.2 0.1 0.2 0.2 0.7 0.5 1.5 1 2.1 1.6l320.8 256.2c14.1 10.5 16.4 30.7 5.4 44.5z"  horiz-adv-x="1024" />

    
    <glyph glyph-name="back" unicode="&#59124;" d="M563.2 52.019h-153.6v51.2h153.6c141.363 0 256 87.040 256 204.8s-114.637 204.8-256 204.8h-307.2c-9.055 0.647-17.462 2.666-25.267 5.855l113.69-114.399c4.732-4.938 7.646-11.652 7.646-19.046s-2.914-14.108-7.655-19.056c-4.652-4.807-11.175-7.798-18.397-7.798-7.222 0-13.745 2.99-18.4 7.801l-147.309 152.327c-4.732 4.938-7.646 11.652-7.646 19.046s2.914 14.108 7.655 19.056l147.395 152.31c4.661 4.817 11.184 7.808 18.406 7.808s13.745-2.99 18.4-7.801c4.739-4.945 7.653-11.659 7.653-19.053 0-7.394-2.914-14.108-7.655-19.056l-102.851-106.333h295.936c1.825-0.28 3.463-0.739 5.012-1.37l20.588 0.909c169.677 0 307.2-114.637 307.2-256s-137.523-256-307.2-256z"  horiz-adv-x="1024" />

    
    <glyph glyph-name="addition" unicode="&#59104;" d="M512 64c-176.448 0-320 143.552-320 320S335.552 704 512 704s320-143.552 320-320-143.552-320-320-320m0 704C300.256 768 128 595.744 128 384s172.256-384 384-384 384 172.256 384 384S723.744 768 512 768M683.936 425.056H544v139.968a32 32 0 1 1-64 0v-139.968h-139.936a32 32 0 0 1 0-64H480v-139.968a32 32 0 0 1 64 0v139.968h139.968a32 32 0 0 1 0 64"  horiz-adv-x="1024" />

    
    <glyph glyph-name="addpeople" unicode="&#59105;" d="M352.416 455.2v104.736C352.416 621.76 400.512 672 459.68 672s107.296-50.24 107.296-112.064v-104.736c0-61.792-48.128-112.064-107.296-112.064-59.168 0-107.264 50.24-107.264 112.064m176.896-374.336l-307.84 0.768v103.456c0 4.224 4.608 11.104 8.608 12.768 1.312 0.64 134.912 61.536 237.12 61.536h31.648c16.96 0 30.72 14.336 30.72 32 0 1.216-0.544 2.24-0.672 3.424 58.56 27.616 99.52 89.056 99.52 160.384v104.736C628.416 657.024 552.736 736 459.68 736c-93.024 0-168.704-78.976-168.704-176.064v-104.736c0-60.16 29.088-113.312 73.312-145.088a912.416 912.416 0 0 1-158.08-53.28C179.84 245.76 160 214.912 160 185.088v-113.76c0-3.52 0.544-6.976 1.632-10.304 8.64-26.432 31.936-44.16 58.048-44.16h309.632c16.96 0 30.72 14.336 30.72 32s-13.76 32-30.72 32M743.68 64c-67.776 0-122.88 57.408-122.88 128s55.104 128 122.88 128 122.88-57.408 122.88-128-55.104-128-122.88-128m0 320c-101.664 0-184.32-86.112-184.32-192s82.656-192 184.32-192c101.664 0 184.32 86.112 184.32 192s-82.656 192-184.32 192M804.48 215.552h-39.296V256c0 12.384-9.6 22.4-21.504 22.4a21.952 21.952 0 0 1-21.504-22.4v-40.448H681.6a21.952 21.952 0 0 1-21.504-22.4c0-12.384 9.6-22.4 21.504-22.4h40.576V128c0-12.384 9.6-22.4 21.504-22.4a21.952 21.952 0 0 1 21.504 22.4v42.752h39.296a21.952 21.952 0 0 1 21.504 22.4c0 12.384-9.6 22.4-21.504 22.4"  horiz-adv-x="1024" />

    
    <glyph glyph-name="addressbook" unicode="&#59106;" d="M896 576h-128a32 32 0 0 1 0-64h128a32 32 0 0 1 0 64M896 448h-128a32 32 0 0 1 0-64h128a32 32 0 0 1 0 64M768 640h128a32 32 0 0 1 0 64h-128a32 32 0 0 1 0-64M768 60.64H193.504c-0.416 0-0.96 0.256-1.504 0.672v118.688c0 5.856 5.92 14.912 12.096 17.472 1.568 0.64 156.896 68.64 275.904 68.64 118.752 0 274.368-67.968 276.672-68.992 5.312-2.208 11.328-11.328 11.328-17.12v-119.36z m-407.584 394.56v104.768a112 112 0 0 0 111.776 112 112 112 0 0 0 111.744-112v-104.768a112 112 0 0 0-111.744-112.064 112.064 112.064 0 0 0-111.776 112.064z m421.344-199.232c-5.12 2.272-97.216 42.56-198.72 62.752a175.904 175.904 0 0 1 64.896 136.448v104.768C647.936 656.992 569.088 736 472.192 736c-96.928 0-175.776-78.976-175.776-176v-104.8c0-56.544 26.88-106.816 68.384-139.072-96.48-20.8-181.344-57.824-185.536-59.712C150.016 244.64 128 211.776 128 179.968v-131.712l1.728-5.024c9.504-27.904 35.136-46.624 63.776-46.624h572.992c33.28 0 60.832 24.864 64.96 56.96l0.544 126.4c0 31.584-21.952 64.416-50.24 76z"  horiz-adv-x="1024" />

    
    <glyph glyph-name="brush" unicode="&#59109;" d="M766.88 460.736l-176.608 176.64 66.72 66.752 176.544-176.704-66.656-66.688zM401.44 95.04L224.64 271.808l0.256-0.064L545.024 592.096l176.64-176.64L401.376 95.04zM224 94.08v87.872l87.712-87.68-87.68-0.192z m655.04 478.528l-176.768 176.736A60.96 60.96 0 0 1 656.96 768a63.968 63.968 0 0 1-45.12-18.848L179.584 316.992a63.936 63.936 0 0 1-17.92-54.368c-0.768-2.688-1.696-5.312-1.696-8.256v-160.288c0-35.136 28.576-63.68 63.712-63.68h160.32c2.88 0 5.504 0.896 8.192 1.632 2.976-0.416 5.952-0.832 8.96-0.832 16.416 0 32.896 6.272 45.44 18.816l432.16 432.16a64 64 0 0 1 0.224 90.432z"  horiz-adv-x="1024" />

    
    <glyph glyph-name="coupons" unicode="&#59117;" d="M832 227.2l-0.096-99.2L192 127.808V227.2c72.96 14.848 128 79.52 128 156.768a160.288 160.288 0 0 1-128 156.8L192.128 640 832 640.224V540.8a160.32 160.32 0 0 1-128-156.8 160.32 160.32 0 0 1 128-156.8m32 252.8h32V640.224A64 64 0 0 1 831.904 704H192.096a64 64 0 0 1-64.128-63.776V480h32c52.96 0 96-43.04 96-96 0-52.928-43.04-96-96-96H128v-160.192A64 64 0 0 1 192.064 64h639.84A64 64 0 0 1 896 127.808V288h-32c-52.928 0-96 43.072-96 96 0 52.96 43.072 96 96 96M608 371.2a22.4 22.4 0 1 1 0 44.8h-64.384c0.064 0.096 0.16 0.096 0.224 0.16l64 64a22.4 22.4 0 1 1-31.68 31.68l-64-64-0.16-0.224-0.16 0.256-64 64a22.4 22.4 0 0 1-31.68-31.712l64-64c0.064-0.064 0.16-0.064 0.224-0.16H416a22.4 22.4 0 1 1 0-44.8h73.6V320H416a22.4 22.4 0 1 1 0-44.8h73.6v-19.2a22.4 22.4 0 0 1 44.8 0v19.2H608a22.4 22.4 0 1 1 0 44.8h-73.6v51.2H608z"  horiz-adv-x="1024" />

    
    <glyph glyph-name="editor" unicode="&#59125;" d="M489.376 361.376a31.904 31.904 0 0 1 45.248 0l304 304a31.968 31.968 0 1 1-45.248 45.248l-304-304a31.968 31.968 0 0 1 0-45.248M832 416a32 32 0 0 1-32-32l0.256-288L224 95.744 223.744 672H512a32 32 0 0 1 0 64H223.744A63.84 63.84 0 0 1 160 672.256v-576.512C160 60.608 188.608 32 223.744 32h576.512A63.84 63.84 0 0 1 864 95.744V384a32 32 0 0 1-32 32"  horiz-adv-x="1024" />

    
    <glyph glyph-name="headlines" unicode="&#59137;" d="M831.904 128L192 127.776 192.096 640 832 640.192l0.224-512.16-0.32-0.032m0 576H192.096A64 64 0 0 1 128 640.192v-512.416A64 64 0 0 1 192.096 64h639.808A64.032 64.032 0 0 1 896 127.776V640.192A64.032 64.032 0 0 1 831.904 704M288 320h128a32 32 0 1 1 0 64H288a32 32 0 1 1 0-64M544 256H288a32 32 0 1 1 0-64h256a32 32 0 1 1 0 64M512 576v-256h256v256h-256z m192-192h-128v128h128v-128z"  horiz-adv-x="1024" />

    
    <glyph glyph-name="homepage" unicode="&#59138;" d="M768 105.44l-128 0.032v118.944a128.224 128.224 0 0 1-128 128.192c-70.592 0-128-57.504-128-128.192v-118.88l-128 0.032V531.008l255.68 167.52L768 530.624v-425.184z m-192 0.032l-128 0.032v118.912c0 35.392 28.704 64.192 64 64.192s64-28.8 64-64.192v-118.944z m304.896 427.68L800 586.144V688.832a32 32 0 1 1-64 0v-60.768l-206.464 135.296A31.296 31.296 0 0 1 511.424 768a31.168 31.168 0 0 1-17.6-4.64l-351.36-230.208a32 32 0 0 1 35.072-53.536L192 489.088v-393.056c0-30.08 27.2-54.592 60.576-54.592h518.848c33.408 0 60.576 24.512 60.576 54.592v392.64l13.856-9.056a31.968 31.968 0 0 1 35.04 53.536z"  horiz-adv-x="1024" />

    
    <glyph glyph-name="manage" unicode="&#59147;" d="M224 472.16V664.256l192 0.096 0.096-192.096L224 472.16z m192.096 256.096H223.904A64 64 0 0 1 160 664.32v-192.192a64 64 0 0 1 63.904-63.904h192.192A64 64 0 0 1 480 472.16V664.32a64 64 0 0 1-63.904 63.904zM224 88.16v192.096l192 0.096 0.096-192.096L224 88.16z m192.096 256.096H223.904A64 64 0 0 1 160 280.32v-192.192a64 64 0 0 1 63.904-63.904h192.192A64 64 0 0 1 480 88.16V280.32a64 64 0 0 1-63.904 63.904zM704.064 432.384l-135.84 135.84 135.712 135.84 135.904-135.744-135.776-135.936z m181.024 181.024l-135.904 135.904a64 64 0 0 1-90.368 0L522.912 613.44a63.456 63.456 0 0 1-18.656-45.056 63.456 63.456 0 0 1 18.656-45.312l135.904-135.936a63.904 63.904 0 0 1 90.368 0.032l135.904 135.904a63.936 63.936 0 0 1 0 90.368zM608 88.16v192.096l192 0.096 0.096-192.096-192.096-0.096z m192.096 256.096h-192.192A64 64 0 0 1 544 280.32v-192.192a64 64 0 0 1 63.904-63.904h192.192A64 64 0 0 1 864 88.16V280.32a64 64 0 0 1-63.904 63.904z"  horiz-adv-x="1024" />

    
    <glyph glyph-name="offline" unicode="&#59154;" d="M512 64c-176.448 0-320 143.552-320 320S335.552 704 512 704s320-143.552 320-320-143.552-320-320-320m0 704C300.256 768 128 595.744 128 384s172.256-384 384-384 384 172.256 384 384S723.744 768 512 768M645.536 422.4h-256a32 32 0 0 1 0-64h256a32 32 0 0 1 0 64"  horiz-adv-x="1024" />

    
    <glyph glyph-name="order" unicode="&#59155;" d="M224 64.064V703.904L223.744 704 800 703.904 800.256 64 224 64.064zM800.256 768H223.744A64 64 0 0 1 160 703.904v-639.84A64 64 0 0 1 223.744 0h576.512A64 64 0 0 1 864 64.064V703.904A64 64 0 0 1 800.256 768zM640 480h-256a32 32 0 0 1 0-64h256a32 32 0 0 1 0 64M640 320h-256a32 32 0 0 1 0-64h256a32 32 0 0 1 0 64"  horiz-adv-x="1024" />

    
    <glyph glyph-name="refresh" unicode="&#59166;" d="M832 384a32 32 0 0 1-32-32c0-158.784-129.216-288-288-288s-288 129.216-288 288 129.216 288 288 288c66.208 0 129.536-22.752 180.608-64H608a32 32 0 0 1 0-64h160a32 32 0 0 1 32 32V704a32 32 0 0 1-64 0v-80.96A350.464 350.464 0 0 1 512 704C317.92 704 160 546.08 160 352s157.92-352 352-352 352 157.92 352 352a32 32 0 0 1-32 32"  horiz-adv-x="1024" />

    
    <glyph glyph-name="send" unicode="&#59174;" d="M832 320a32 32 0 0 1-32-32l0.256-192L224 95.744 223.744 672H416a32 32 0 0 1 0 64H223.744A63.84 63.84 0 0 1 160 672.256v-576.512C160 60.608 188.608 32 223.744 32h576.512A63.84 63.84 0 0 1 864 95.744V288a32 32 0 0 1-32 32M800.544 736H640a32 32 0 0 1 0-64l114.944 0.192-265.6-265.568a32 32 0 0 1 45.28-45.248l265.664 265.632v-115.264a32 32 0 1 1 64 0V672.256A63.84 63.84 0 0 1 800.544 736"  horiz-adv-x="1024" />

    
    <glyph glyph-name="success" unicode="&#59181;" d="M512 64c-176.448 0-320 143.552-320 320S335.552 704 512 704s320-143.552 320-320-143.552-320-320-320m0 704C300.256 768 128 595.744 128 384s172.256-384 384-384 384 172.256 384 384S723.744 768 512 768M619.072 466.912l-151.744-165.888-62.112 69.6a32 32 0 1 1-47.744-42.624l85.696-96a32 32 0 0 1 23.68-10.688h0.192c8.96 0 17.536 3.776 23.616 10.4l175.648 192a32 32 0 0 1-47.232 43.2"  horiz-adv-x="1024" />

    
    <glyph glyph-name="tasklist" unicode="&#59187;" d="M832.452066 638.935216H704.333401v85.520142c0 32.988074-28.884086 42.676865-63.951548 42.676865H383.694441c-35.098696 0-63.951548-9.545932-63.951548-42.676865v-85.520142h-128.118665c-35.668083 0-64.176845-28.619874-64.176845-64.096455v-480.740056c0-35.235923 28.79448-64.098503 64.176845-64.098503h640.827838c35.668083 0 64.176845 28.621923 64.176845 64.098503V574.838761c-0.000512 35.235411-28.79448 64.096455-64.176845 64.096455zM383.841396 703.03372h256.393502v-64.098504H383.841396v64.098504z m-192.217168-128.197007s640.905668-0.129034 640.905668 0.002048c0 0 0.015873-56.003688 0.027138-129.745923-2.521277 0.637488-4.945267 1.54738-7.664191 1.54738H191.545886c-0.013825 0-0.023554-0.007681-0.037379-0.007681 0.012289 72.96496 0.043523 128.204175 0.115721 128.204176zM567.245871 382.541715c-11.103041-19.078039-31.54259-32.048996-55.20798-32.048996-23.665391 0-44.10494 12.970957-55.207981 32.048996h110.415961z m265.206195-288.44301s-640.905668 0.131082-640.905668 0c0 0-0.043011 154.589002-0.040963 288.45069 0.013825 0 0.02765-0.007681 0.040963-0.00768h196.827562C402.671096 327.345511 452.372616 286.394216 512.038403 286.394216S621.405197 327.345511 635.702846 382.541715h189.191021c2.720972 0 5.150594 0.90938 7.67392 1.549428 0.015361-134.216018 0.003584-289.992437-0.115721-289.992438z"  horiz-adv-x="1024" />

    
    <glyph glyph-name="trash" unicode="&#59193;" d="M736 543.968L736.096 96h-0.128L288 96.032 288.032 544 736 543.968zM384 672h256v-64h-256V672z m448-64h-128V693.376C704 713.952 687.232 736 640.16 736h-256.32C336.768 736 320 713.952 320 693.376V608H192a32 32 0 1 1 0-64h32V96.032C224 60.704 252.704 32 288.032 32h447.936A64.064 64.064 0 0 1 800 96.032V544h32a32 32 0 1 1 0 64zM608 205.44a32 32 0 0 1 32 32V448a32 32 0 1 1-64 0v-210.56a32 32 0 0 1 32-32M416 205.44a32 32 0 0 1 32 32V448a32 32 0 1 1-64 0v-210.56a32 32 0 0 1 32-32"  horiz-adv-x="1024" />

    
    <glyph glyph-name="search" unicode="&#59201;" d="M192 416a256 256 0 1 0 512 0 256 256 0 0 0-512 0m631.776-362.496l-143.2 143.168A318.464 318.464 0 0 1 768 416c0 176.736-143.264 320-320 320S128 592.736 128 416s143.264-320 320-320a318.016 318.016 0 0 1 184.16 58.592l146.336-146.368c12.512-12.48 32.768-12.48 45.28 0 12.48 12.512 12.48 32.768 0 45.28"  horiz-adv-x="1024" />

    
    <glyph glyph-name="jichuguanli" unicode="&#58890;" d="M433.88720703 391.66296387H215.2043457c-24.22485351 0-43.91784668 19.69299317-43.91784668 43.91784668V654.26367188c0 24.22485351 19.69299317 43.91784668 43.91784668 43.91784668h218.68286133c24.22485351 0 43.91784668-19.69299317 43.91784669-43.91784669v-218.68286132c0-24.22485351-19.69299317-43.91784668-43.91784669-43.91784669zM215.2043457 660.52587891c-3.46069337 0-6.26220703-2.80151367-6.26220703-6.26220704v-218.60046387c0-3.46069337 2.80151367-6.26220703 6.26220703-6.26220702h218.68286133c3.46069337 0 6.26220703 2.80151367 6.26220703 6.26220703V654.26367188c0 3.46069337-2.80151367 6.26220703-6.26220703 6.26220703H215.2043457z m218.68286133-614.10827638H215.2043457c-24.22485351 0-43.91784668 19.69299317-43.91784668 43.91784669V309.01831055c0 24.22485351 19.69299317 43.91784668 43.91784668 43.91784668h218.68286133c24.22485351 0 43.91784668-19.69299317 43.91784669-43.91784668v-218.68286133c0-24.22485351-19.69299317-43.91784668-43.91784669-43.91784669zM215.2043457 315.28051758000004c-3.46069337 0-6.26220703-2.80151367-6.26220703-6.26220703v-218.68286133c0-3.46069337 2.80151367-6.26220703 6.26220703-6.26220703h218.68286133c3.46069337 0 6.26220703 2.80151367 6.26220703 6.26220703V309.01831055c0 3.46069337-2.80151367 6.26220703-6.26220703 6.26220703H215.2043457z m565.57617188-268.86291505H562.09765625c-24.22485351 0-43.91784668 19.69299317-43.91784668 43.91784669V309.01831055c0 24.22485351 19.69299317 43.91784668 43.91784668 43.91784668h218.68286133c24.22485351 0 43.91784668-19.69299317 43.91784668-43.91784668v-218.68286133c-0.08239747-24.22485351-19.69299317-43.91784668-43.91784668-43.91784669zM562.09765625 315.28051758000004c-3.46069337 0-6.26220703-2.80151367-6.26220703-6.26220703v-218.68286133c0-3.46069337 2.80151367-6.26220703 6.26220703-6.26220703h218.68286133c3.46069337 0 6.26220703 2.80151367 6.26220705 6.26220703V309.01831055c0 3.46069337-2.80151367 6.26220703-6.26220705 6.26220703H562.09765625z m101.84326172 52.734375c-11.70043946 0-22.90649414 4.61425781-31.06384278 12.8540039L499.88757324 513.85839844c-8.23974609 8.23974609-12.85400391 19.44580078-12.8540039 31.06384278 0 11.61804201 4.61425781 22.82409669 12.8540039 31.06384276l132.98950195 132.98950196c16.56188965 16.56188965 45.48339844 16.56188965 62.12768555 0L827.9942627 575.98608398c17.13867188-17.13867188 17.13867188-44.90661622-1e-8-62.12768554L695.00476075 380.86889648c-8.23974609-8.23974609-19.36340333-12.85400391-31.06384278-12.8540039z m0 316.15905762c-1.64794922 0-3.29589844-0.65917969-4.44946289-1.81274415L526.50195313 549.37170411c-1.15356445-1.15356445-1.81274414-2.80151367-1.81274415-4.4494629 0-1.64794922 0.65917969-3.29589844 1.81274414-4.4494629L659.49145508 407.48327638c1.64794922-1.64794922 4.20227051-1.4831543 4.44946289-1.81274416 1.64794922 0 3.29589844 0.65917969 4.44946289 1.81274414l132.98950195 132.98950195c2.47192383 2.47192383 2.47192383 6.42700195 0 8.89892579L668.39038086 682.36120606c-1.15356445 1.15356445-2.80151367 1.81274414-4.44946289 1.81274413z"  horiz-adv-x="1024" />

    
    <glyph glyph-name="tijian" unicode="&#58982;" d="M235.14453125 682.18880208a39.55078125 39.55078125 0 0 1-39.55078126-39.55078125v-435.05859375a39.55078125 39.55078125 0 0 1 39.55078126-39.55078125h553.7109375a39.55078125 39.55078125 0 0 1 39.55078126 39.55078125V642.63802083a39.55078125 39.55078125 0 0 1-39.55078126 39.55078125H235.14453125z m0 39.55078126h553.7109375a79.1015625 79.1015625 0 0 0 79.1015625-79.10156251v-435.05859375a79.1015625 79.1015625 0 0 0-79.1015625-79.1015625H235.14453125a79.1015625 79.1015625 0 0 0-79.1015625 79.1015625V642.63802083a79.1015625 79.1015625 0 0 0 79.1015625 79.10156249z m98.87695313-632.8125h355.95703124a19.77539063 19.77539063 0 1 0 1e-8-39.55078126h-355.95703126a19.77539063 19.77539063 0 1 0 1e-8 39.55078126zM616.65136719 351.78157552000005A19.77539063 19.77539063 0 0 1 630.65234375 346.00716145h118.65234375a19.77539063 19.77539063 0 1 1 0 39.55078125h-110.46533203L486.45019531 537.98665364a19.77539063 19.77539063 0 0 1-31.68017578-5.14160156L381.08691406 385.5579427H274.6953125a19.77539063 19.77539063 0 1 1 0-39.55078124h118.65234375a19.77539063 19.77539063 0 0 1 17.67919922 10.91601562l66.84082031 133.68164063 138.82324219-138.82324219z"  horiz-adv-x="1024" />

    


  </font>
</defs>
</svg>
